# xmcd
#
# Track frame offsets:
#	150
#	17475
#	38212
#	54300
#	72975
#	87247
#	107235
#	129937
#	141825
#	152497
#	165960
#	183787
#	198112
#	213435
#	232392
#
# Disc length: 3310 seconds
#
# Revision: 2
# Processed by: cddbd v1.5.2PL0 Copyright (c) Steve Scherf et al.
# Submitted via: EasyCDDAExtractor 12.0.1.1
#
DISCID=c10cec0f
DTITLE=Various Artist - Country Sings Disney
DYEAR=2008
DGENRE=Country
TTITLE0=Billy Ray Cyrus feat Miley Cyrus - Ready, Set, Don't Go
TTITLE1=Rascal Flatts - Life Is A Highway
TTITLE2=Tim McGraw - Wherever My Trail May Lead
TTITLE3=Martina McBride - Through My Eyes
TTITLE4=Trisha Yearwood - Blue Beyond
TTITLE5=Bucky Covington - You'll Be In My Heart
TTITLE6=Phil Stacey - Can You Feel The Love Tonight
TTITLE7=Bonnie Raitt - Will The Sun Ever Shine Again
TTITLE8=Alison Krauss - There Is Life
TTITLE9=Josh Gracin - When I See An Elephant Fly
TTITLE10=SheDaisy - Baby Mine
TTITLE11=Little Big Town - We Go Together
TTITLE12=Faith Hill - Part Of Your World
TTITLE13=Brad Paisley - Find Yourself
TTITLE14=Various Artist - Real Gone
EXTD=
EXTT0=
EXTT1=
EXTT2=
EXTT3=
EXTT4=
EXTT5=
EXTT6=
EXTT7=
EXTT8=
EXTT9=
EXTT10=
EXTT11=
EXTT12=
EXTT13=
EXTT14=
PLAYORDER=
